<svg width="24" height="24" viewBox="0 0 24 24" fill="none" xmlns="http://www.w3.org/2000/svg">
<path d="M11.9417 19C12.35 19 12.6952 18.859 12.9771 18.5771C13.2591 18.2951 13.4 17.95 13.4 17.5416C13.4 17.1333 13.2591 16.7882 12.9771 16.5062C12.6952 16.2243 12.35 16.0833 11.9417 16.0833C11.5334 16.0833 11.1882 16.2243 10.9063 16.5062C10.6243 16.7882 10.4834 17.1333 10.4834 17.5416C10.4834 17.95 10.6243 18.2951 10.9063 18.5771C11.1882 18.859 11.5334 19 11.9417 19ZM10.8917 14.5083H13.05C13.05 13.8666 13.123 13.3611 13.2688 12.9916C13.4146 12.6222 13.8278 12.1166 14.5084 11.475C15.0139 10.9694 15.4125 10.4882 15.7042 10.0312C15.9959 9.57428 16.1417 9.02498 16.1417 8.38331C16.1417 7.29442 15.7431 6.45831 14.9459 5.87498C14.1487 5.29165 13.2056 4.99998 12.1167 4.99998C11.0084 4.99998 10.1091 5.29165 9.41879 5.87498C8.72851 6.45831 8.24726 7.15831 7.97504 7.97498L9.90004 8.73331C9.99726 8.38331 10.216 8.00415 10.5563 7.59581C10.8966 7.18748 11.4167 6.98331 12.1167 6.98331C12.7389 6.98331 13.2056 7.15345 13.5167 7.49373C13.8278 7.83401 13.9834 8.20831 13.9834 8.61665C13.9834 9.00554 13.8667 9.37012 13.6334 9.7104C13.4 10.0507 13.1084 10.3666 12.7584 10.6583C11.9028 11.4166 11.3778 11.9903 11.1834 12.3791C10.9889 12.768 10.8917 13.4778 10.8917 14.5083ZM12 23.6666C10.3862 23.6666 8.86948 23.3604 7.45004 22.7479C6.0306 22.1354 4.79587 21.3041 3.74587 20.2541C2.69587 19.2041 1.86462 17.9694 1.25212 16.55C0.639624 15.1305 0.333374 13.6139 0.333374 12C0.333374 10.3861 0.639624 8.86942 1.25212 7.44998C1.86462 6.03053 2.69587 4.79581 3.74587 3.74581C4.79587 2.69581 6.0306 1.86456 7.45004 1.25206C8.86948 0.639563 10.3862 0.333313 12 0.333313C13.6139 0.333313 15.1306 0.639563 16.55 1.25206C17.9695 1.86456 19.2042 2.69581 20.2542 3.74581C21.3042 4.79581 22.1355 6.03053 22.748 7.44998C23.3605 8.86942 23.6667 10.3861 23.6667 12C23.6667 13.6139 23.3605 15.1305 22.748 16.55C22.1355 17.9694 21.3042 19.2041 20.2542 20.2541C19.2042 21.3041 17.9695 22.1354 16.55 22.7479C15.1306 23.3604 13.6139 23.6666 12 23.6666Z" fill="white"/>
</svg>
