<svg width="17" height="16" viewBox="0 0 17 16" fill="none" xmlns="http://www.w3.org/2000/svg">
<mask id="mask0_3596_4605" style="mask-type:alpha" maskUnits="userSpaceOnUse" x="0" y="0" width="17" height="16">
<rect x="0.5" width="16" height="16" fill="#D9D9D9"/>
</mask>
<g mask="url(#mask0_3596_4605)">
<path d="M7.83325 11.3333H9.16658V7.33325H7.83325V11.3333ZM8.49992 5.99992C8.68881 5.99992 8.84714 5.93603 8.97492 5.80825C9.1027 5.68047 9.16658 5.52214 9.16658 5.33325C9.16658 5.14436 9.1027 4.98603 8.97492 4.85825C8.84714 4.73047 8.68881 4.66658 8.49992 4.66658C8.31103 4.66658 8.1527 4.73047 8.02492 4.85825C7.89714 4.98603 7.83325 5.14436 7.83325 5.33325C7.83325 5.52214 7.89714 5.68047 8.02492 5.80825C8.1527 5.93603 8.31103 5.99992 8.49992 5.99992ZM8.49992 14.6666C7.5777 14.6666 6.71103 14.4916 5.89992 14.1416C5.08881 13.7916 4.38325 13.3166 3.78325 12.7166C3.18325 12.1166 2.70825 11.411 2.35825 10.5999C2.00825 9.78881 1.83325 8.92214 1.83325 7.99992C1.83325 7.0777 2.00825 6.21103 2.35825 5.39992C2.70825 4.58881 3.18325 3.88325 3.78325 3.28325C4.38325 2.68325 5.08881 2.20825 5.89992 1.85825C6.71103 1.50825 7.5777 1.33325 8.49992 1.33325C9.42214 1.33325 10.2888 1.50825 11.0999 1.85825C11.911 2.20825 12.6166 2.68325 13.2166 3.28325C13.8166 3.88325 14.2916 4.58881 14.6416 5.39992C14.9916 6.21103 15.1666 7.0777 15.1666 7.99992C15.1666 8.92214 14.9916 9.78881 14.6416 10.5999C14.2916 11.411 13.8166 12.1166 13.2166 12.7166C12.6166 13.3166 11.911 13.7916 11.0999 14.1416C10.2888 14.4916 9.42214 14.6666 8.49992 14.6666ZM8.49992 13.3333C9.98881 13.3333 11.2499 12.8166 12.2833 11.7833C13.3166 10.7499 13.8333 9.48881 13.8333 7.99992C13.8333 6.51103 13.3166 5.24992 12.2833 4.21659C11.2499 3.18325 9.98881 2.66659 8.49992 2.66659C7.01103 2.66659 5.74992 3.18325 4.71659 4.21659C3.68325 5.24992 3.16659 6.51103 3.16659 7.99992C3.16659 9.48881 3.68325 10.7499 4.71659 11.7833C5.74992 12.8166 7.01103 13.3333 8.49992 13.3333Z" fill="white"/>
</g>
</svg>
