<svg width="138" height="28" viewBox="0 0 138 28" fill="none" xmlns="http://www.w3.org/2000/svg">
<path d="M77.7224 15.5724C76.9888 23.4 73.321 27.2478 63.7849 27.9443C54.2488 28.6409 49.1137 22.7034 49.8473 15.5724C50.581 8.44144 55.7158 3.03481 63.7849 1.64179C71.854 0.248766 78.4561 7.74491 77.7224 15.5724Z" fill="#F06BFF"/>
<path d="M65.6524 15.6658C64.6849 18.8601 61.6519 21.4339 58.2091 20.3995C54.7664 19.3651 53.4263 16.3486 54.6356 12.3557C55.7042 8.82725 58.6361 6.58756 62.0788 7.62196C65.5216 8.65637 66.6198 12.4714 65.6524 15.6658Z" fill="white"/>
<path d="M60.0735 13.4881C59.9089 15.1111 58.7949 16.326 57.5854 16.2018C56.3758 16.0775 55.5287 14.6611 55.6934 13.0382C55.858 11.4152 56.972 10.2003 58.1815 10.3245C59.3911 10.4488 60.2381 11.8652 60.0735 13.4881Z" fill="black"/>
<path d="M68.5347 1.92591C67.9763 2.70031 67.0437 3.12561 66.4515 2.87585C65.8593 2.62609 65.8319 1.79585 66.3902 1.02146C66.9486 0.247062 67.8813 -0.178239 68.4734 0.0715199C69.0656 0.321278 69.093 1.15152 68.5347 1.92591Z" fill="#F06BFF"/>
<path d="M70.4658 3.50205C69.3266 4.49273 68.048 4.7176 67.6102 4.00431C67.1723 3.29102 67.7409 1.90968 68.8802 0.919001C70.0194 -0.0716784 71.2979 -0.296547 71.7358 0.416742C72.1737 1.13003 71.6051 2.51137 70.4658 3.50205Z" fill="#F06BFF"/>
<path d="M73.0827 4.25109C71.8892 4.6302 70.7146 4.35385 70.4592 3.63383C70.2038 2.91381 70.9643 2.02279 72.1579 1.64367C73.3515 1.26455 74.5261 1.54091 74.7815 2.26093C75.0369 2.98095 74.2763 3.87197 73.0827 4.25109Z" fill="#F06BFF"/>
<path d="M4.14815 0C1.55556 0 0 1.03704 0 3.62963V28H5.18519C9.33333 28 10.3704 24.3704 10.3704 22.2963V17.6296H17.1111C19.7037 17.6296 20.7407 16.0741 20.7407 15.037V12.4444C20.7407 11.9259 20.2222 10.8889 19.1852 10.8889H10.3704V7.25926H19.1852C22.8148 7.25926 22.2963 4.14815 22.2963 2.07407C22.2963 0 21.7778 0 19.7037 0H4.14815Z" fill="#00D9B2"/>
<path fill-rule="evenodd" clip-rule="evenodd" d="M23.8518 3.62963C23.8518 1.03704 25.4074 0 28 0H36.8148C44.074 0 48.2222 2.59259 48.2222 8.2963C48.2222 14 44.7654 15.7284 43.037 16.5926H42.5185C45.1111 18.6667 46.874 21.7778 47.7037 23.8519C48.7407 26.4444 47.1851 28 45.1111 28H38.3703C38.3703 28 38.3703 25.4074 36.8148 22.2963C36.0568 20.7804 35.0527 19.3876 34.2222 18.3578V22.2963C34.2222 24.3704 33.1851 28 29.037 28H23.8518V3.62963ZM35.4735 10.8716C36.2885 11.5736 38.0005 10.9221 39.2974 9.41648C40.5943 7.91084 40.985 6.1212 40.17 5.41922C39.355 4.71723 37.643 5.36872 36.3461 6.87436C35.0492 8.38 34.6585 10.1696 35.4735 10.8716Z" fill="#00D9B2"/>
<path fill-rule="evenodd" clip-rule="evenodd" d="M115.417 1.55556C112.101 4.50149 109.978 8.9267 109.978 14C109.978 19.0733 112.101 23.5977 115.417 26.5436C117.056 28.0001 118.175 28.0001 120.302 28H120.348H127.607C129.914 28 131.571 27.5441 133.311 25.9259C136.481 22.9773 137.978 18.9427 137.978 14C137.978 9.79918 136.731 5.97474 134.348 3.11111C131.994 0.282314 130.2 0 127.607 0H120.348C118.598 0 116.763 0.359009 115.417 1.55556ZM121.942 20.8467C123.395 21.355 125.609 18.8059 126.887 15.1531C128.165 11.5003 128.023 8.12707 126.57 7.61873C125.117 7.11039 122.903 9.65948 121.625 13.3123C120.347 16.9651 120.489 20.3383 121.942 20.8467Z" fill="#00D9B2"/>
<path d="M79.3333 1.51351V28H85.236C88.7171 28 89.7766 25.427 89.7766 24.2162V15.1351C90.6096 16.0662 91.8146 18.6667 93.3702 18.6667C94.9257 18.6667 98 14.7778 98 14.7778V28H103.903C107.384 28 108.443 25.427 108.443 24.2162C108.443 24.2162 108.5 2.45315 108.443 1.86667C108.386 1.28018 108.033 0 105.555 0C103.077 0 102.667 0 102.667 0C100.333 0 99.5555 0.777778 98.7778 1.55556C98.1652 2.16812 95.5111 4.9 94.3035 6.16086L89.4739 0H80.9982C80.3928 0 79.3333 0 79.3333 1.51351Z" fill="#00D9B2"/>
</svg>
