<svg width="21" height="20" viewBox="0 0 21 20" fill="none" xmlns="http://www.w3.org/2000/svg">
<path d="M2.59999 16V13.9C2.59999 13.475 2.70605 13.0844 2.91817 12.7281C3.13029 12.3719 3.41211 12.1 3.76363 11.9125C4.51514 11.525 5.27878 11.2344 6.05454 11.0406C6.83029 10.8469 7.61817 10.75 8.41817 10.75C9.21817 10.75 10.0061 10.8469 10.7818 11.0406C11.5576 11.2344 12.3212 11.525 13.0727 11.9125C13.4242 12.1 13.7061 12.3719 13.9182 12.7281C14.1303 13.0844 14.2364 13.475 14.2364 13.9V16H2.59999ZM15.6909 16V13.75C15.6909 13.2 15.5424 12.6719 15.2454 12.1656C14.9485 11.6594 14.5273 11.225 13.9818 10.8625C14.6 10.9375 15.1818 11.0656 15.7273 11.2469C16.2727 11.4281 16.7818 11.65 17.2545 11.9125C17.6909 12.1625 18.0242 12.4406 18.2545 12.7469C18.4848 13.0531 18.6 13.3875 18.6 13.75V16H15.6909ZM8.41817 10C7.61817 10 6.93332 9.70625 6.36363 9.11875C5.79393 8.53125 5.50908 7.825 5.50908 7C5.50908 6.175 5.79393 5.46875 6.36363 4.88125C6.93332 4.29375 7.61817 4 8.41817 4C9.21817 4 9.90302 4.29375 10.4727 4.88125C11.0424 5.46875 11.3273 6.175 11.3273 7C11.3273 7.825 11.0424 8.53125 10.4727 9.11875C9.90302 9.70625 9.21817 10 8.41817 10ZM15.6909 7C15.6909 7.825 15.4061 8.53125 14.8364 9.11875C14.2667 9.70625 13.5818 10 12.7818 10C12.6485 10 12.4788 9.98438 12.2727 9.95312C12.0667 9.92188 11.897 9.8875 11.7636 9.85C12.0909 9.45 12.3424 9.00625 12.5182 8.51875C12.6939 8.03125 12.7818 7.525 12.7818 7C12.7818 6.475 12.6939 5.96875 12.5182 5.48125C12.3424 4.99375 12.0909 4.55 11.7636 4.15C11.9333 4.0875 12.103 4.04688 12.2727 4.02813C12.4424 4.00938 12.6121 4 12.7818 4C13.5818 4 14.2667 4.29375 14.8364 4.88125C15.4061 5.46875 15.6909 6.175 15.6909 7Z" fill="white" fill-opacity="0.6"/>
</svg>
