<svg width="20" height="20" viewBox="0 0 20 20" fill="none" xmlns="http://www.w3.org/2000/svg">
<path d="M2 16V13.9C2 13.475 2.10606 13.0844 2.31818 12.7281C2.5303 12.3719 2.81212 12.1 3.16364 11.9125C3.91515 11.525 4.67879 11.2344 5.45455 11.0406C6.2303 10.8469 7.01818 10.75 7.81818 10.75C8.61818 10.75 9.40606 10.8469 10.1818 11.0406C10.9576 11.2344 11.7212 11.525 12.4727 11.9125C12.8242 12.1 13.1061 12.3719 13.3182 12.7281C13.5303 13.0844 13.6364 13.475 13.6364 13.9V16H2ZM15.0909 16V13.75C15.0909 13.2 14.9424 12.6719 14.6455 12.1656C14.3485 11.6594 13.9273 11.225 13.3818 10.8625C14 10.9375 14.5818 11.0656 15.1273 11.2469C15.6727 11.4281 16.1818 11.65 16.6545 11.9125C17.0909 12.1625 17.4242 12.4406 17.6545 12.7469C17.8848 13.0531 18 13.3875 18 13.75V16H15.0909ZM7.81818 10C7.01818 10 6.33333 9.70625 5.76364 9.11875C5.19394 8.53125 4.90909 7.825 4.90909 7C4.90909 6.175 5.19394 5.46875 5.76364 4.88125C6.33333 4.29375 7.01818 4 7.81818 4C8.61818 4 9.30303 4.29375 9.87273 4.88125C10.4424 5.46875 10.7273 6.175 10.7273 7C10.7273 7.825 10.4424 8.53125 9.87273 9.11875C9.30303 9.70625 8.61818 10 7.81818 10ZM15.0909 7C15.0909 7.825 14.8061 8.53125 14.2364 9.11875C13.6667 9.70625 12.9818 10 12.1818 10C12.0485 10 11.8788 9.98438 11.6727 9.95312C11.4667 9.92188 11.297 9.8875 11.1636 9.85C11.4909 9.45 11.7424 9.00625 11.9182 8.51875C12.0939 8.03125 12.1818 7.525 12.1818 7C12.1818 6.475 12.0939 5.96875 11.9182 5.48125C11.7424 4.99375 11.4909 4.55 11.1636 4.15C11.3333 4.0875 11.503 4.04688 11.6727 4.02813C11.8424 4.00938 12.0121 4 12.1818 4C12.9818 4 13.6667 4.29375 14.2364 4.88125C14.8061 5.46875 15.0909 6.175 15.0909 7Z" fill="#7E4AF1"/>
</svg>
