<svg width="29" height="28" viewBox="0 0 29 28" fill="none" xmlns="http://www.w3.org/2000/svg">
<mask id="mask0_3210_4078" style="mask-type:alpha" maskUnits="userSpaceOnUse" x="0" y="0" width="29" height="28">
<rect x="0.25" width="28" height="28" fill="#D9D9D9"/>
</mask>
<g mask="url(#mask0_3210_4078)">
<path d="M10.75 3.49999V1.16666H17.75V3.49999H10.75ZM13.0833 16.3333H15.4167V9.33332H13.0833V16.3333ZM14.25 25.6667C12.8111 25.6667 11.4549 25.3896 10.1813 24.8354C8.90764 24.2812 7.79444 23.5278 6.84167 22.575C5.88889 21.6222 5.13542 20.509 4.58125 19.2354C4.02708 17.9618 3.75 16.6055 3.75 15.1667C3.75 13.7278 4.02708 12.3715 4.58125 11.0979C5.13542 9.8243 5.88889 8.7111 6.84167 7.75832C7.79444 6.80555 8.90764 6.05207 10.1813 5.49791C11.4549 4.94374 12.8111 4.66666 14.25 4.66666C15.4556 4.66666 16.6125 4.8611 17.7208 5.24999C18.8292 5.63888 19.8694 6.20277 20.8417 6.94166L22.475 5.30832L24.1083 6.94166L22.475 8.57499C23.2139 9.54721 23.7778 10.5875 24.1667 11.6958C24.5556 12.8042 24.75 13.9611 24.75 15.1667C24.75 16.6055 24.4729 17.9618 23.9187 19.2354C23.3646 20.509 22.6111 21.6222 21.6583 22.575C20.7056 23.5278 19.5924 24.2812 18.3187 24.8354C17.0451 25.3896 15.6889 25.6667 14.25 25.6667ZM14.25 23.3333C16.5056 23.3333 18.4306 22.5361 20.025 20.9417C21.6194 19.3472 22.4167 17.4222 22.4167 15.1667C22.4167 12.9111 21.6194 10.9861 20.025 9.39166C18.4306 7.79721 16.5056 6.99999 14.25 6.99999C11.9944 6.99999 10.0694 7.79721 8.475 9.39166C6.88056 10.9861 6.08333 12.9111 6.08333 15.1667C6.08333 17.4222 6.88056 19.3472 8.475 20.9417C10.0694 22.5361 11.9944 23.3333 14.25 23.3333Z" fill="white"/>
</g>
</svg>
