<svg width="16" height="16" viewBox="0 0 16 16" fill="none" xmlns="http://www.w3.org/2000/svg">
<path d="M7.9672 11.6667C8.19681 11.6667 8.39089 11.5861 8.54944 11.425C8.70798 11.2639 8.78725 11.0667 8.78725 10.8333C8.78725 10.6 8.70798 10.4028 8.54944 10.2417C8.39089 10.0806 8.19681 10 7.9672 10C7.73758 10 7.5435 10.0806 7.38496 10.2417C7.22642 10.4028 7.14714 10.6 7.14714 10.8333C7.14714 11.0667 7.22642 11.2639 7.38496 11.425C7.5435 11.5861 7.73758 11.6667 7.9672 11.6667ZM7.37676 9.1H8.59044C8.59044 8.73333 8.63144 8.44444 8.71345 8.23333C8.79545 8.02222 9.0278 7.73333 9.41049 7.36667C9.69478 7.07778 9.91892 6.80278 10.0829 6.54167C10.2469 6.28056 10.3289 5.96667 10.3289 5.6C10.3289 4.97778 10.1048 4.5 9.65651 4.16667C9.20821 3.83333 8.67791 3.66667 8.0656 3.66667C7.44236 3.66667 6.93666 3.83333 6.54851 4.16667C6.16035 4.5 5.88973 4.9 5.73665 5.36667L6.81912 5.8C6.87379 5.6 6.9968 5.38333 7.18815 5.15C7.37949 4.91667 7.67198 4.8 8.0656 4.8C8.41549 4.8 8.67791 4.89722 8.85285 5.09167C9.0278 5.28611 9.11527 5.5 9.11527 5.73333C9.11527 5.95556 9.04967 6.16389 8.91846 6.35833C8.78725 6.55278 8.62324 6.73333 8.42643 6.9C7.94533 7.33333 7.65011 7.66111 7.54077 7.88333C7.43143 8.10556 7.37676 8.51111 7.37676 9.1ZM8 14.3333C7.09247 14.3333 6.23962 14.1583 5.44143 13.8083C4.64325 13.4583 3.94894 12.9833 3.3585 12.3833C2.76806 11.7833 2.30063 11.0778 1.95621 10.2667C1.61179 9.45555 1.43958 8.58889 1.43958 7.66667C1.43958 6.74444 1.61179 5.87778 1.95621 5.06667C2.30063 4.25556 2.76806 3.55 3.3585 2.95C3.94894 2.35 4.64325 1.875 5.44143 1.525C6.23962 1.175 7.09247 1 8 1C8.90752 1 9.76038 1.175 10.5586 1.525C11.3567 1.875 12.0511 2.35 12.6415 2.95C13.2319 3.55 13.6994 4.25556 14.0438 5.06667C14.3882 5.87778 14.5604 6.74444 14.5604 7.66667C14.5604 8.58889 14.3882 9.45555 14.0438 10.2667C13.6994 11.0778 13.2319 11.7833 12.6415 12.3833C12.0511 12.9833 11.3567 13.4583 10.5586 13.8083C9.76038 14.1583 8.90752 14.3333 8 14.3333Z" fill="#222222"/>
</svg>
