<svg width="21" height="10" viewBox="0 0 21 10" fill="none" xmlns="http://www.w3.org/2000/svg">
<path d="M9.33337 10H5.33337C3.95004 10 2.77087 9.5125 1.79587 8.5375C0.820874 7.5625 0.333374 6.38333 0.333374 5C0.333374 3.61667 0.820874 2.4375 1.79587 1.4625C2.77087 0.4875 3.95004 0 5.33337 0H9.33337V2H5.33337C4.50004 2 3.79171 2.29167 3.20837 2.875C2.62504 3.45833 2.33337 4.16667 2.33337 5C2.33337 5.83333 2.62504 6.54167 3.20837 7.125C3.79171 7.70833 4.50004 8 5.33337 8H9.33337V10ZM6.33337 6V4H14.3334V6H6.33337ZM11.3334 10V8H15.3334C16.1667 8 16.875 7.70833 17.4584 7.125C18.0417 6.54167 18.3334 5.83333 18.3334 5C18.3334 4.16667 18.0417 3.45833 17.4584 2.875C16.875 2.29167 16.1667 2 15.3334 2H11.3334V0H15.3334C16.7167 0 17.8959 0.4875 18.8709 1.4625C19.8459 2.4375 20.3334 3.61667 20.3334 5C20.3334 6.38333 19.8459 7.5625 18.8709 8.5375C17.8959 9.5125 16.7167 10 15.3334 10H11.3334Z" fill="white"/>
</svg>
