<svg width="390" height="414" viewBox="0 0 390 414" fill="none" xmlns="http://www.w3.org/2000/svg">
<path d="M6.07091 274.97L6.07423 274.829L6.07093 274.688C6.02369 272.67 6 270.608 6 268.5C6 204.993 23.2587 139.045 55.6569 89.1585C87.9972 39.3617 135.059 6 195 6C258.651 6 305.664 39.4361 337.029 89.0947C368.504 138.926 384 204.87 384 268.5C384 271.025 383.966 273.486 383.898 275.883L383.893 276.047L383.898 276.21C383.965 278.784 384 281.382 384 284C384 315.753 378.939 344.226 370.968 364.54C366.975 374.715 362.37 382.543 357.562 387.725C352.762 392.9 348.204 395 344.091 395C338.803 395 332.714 391.462 326.545 382.623C320.024 373.279 309.586 366.089 297.024 366.59C287.042 366.987 278.084 372.395 271.969 379.233C265.928 385.988 259.842 389 254.091 389C249.118 389 243.929 386.763 238.701 381.803C229.942 373.493 218.414 364.745 204.154 364.561C201.122 364.522 198.07 364.5 195 364.5C186.07 364.5 178.671 370.246 175.346 377.829C170.975 387.796 165.912 395.492 160.588 400.613C155.294 405.706 150.035 408 145 408C135.713 408 125.449 399.91 116.752 382.333C112.319 373.373 103.176 366.998 92.9139 366.587C83.2058 366.198 75.029 371.244 69.4791 377.904C63.0795 385.585 56.5692 389 50.4545 389C45.4492 389 40.2235 386.733 34.9607 381.704C29.6676 376.645 24.6275 369.04 20.2644 359.182C11.5452 339.481 6 311.845 6 281C6 278.977 6.02386 276.966 6.07091 274.97Z" stroke="#4E5856" stroke-width="12"/>
</svg>
